<?xml version="1.0" encoding="utf-8"?>
<COLLADA xmlns="http://www.collada.org/2005/11/COLLADASchema" version="1.4.1" xmlns:xsi="http://www.w3.org/2001/XMLSchema-instance">
  <asset>
    <contributor>
      <author>Blender User</author>
      <authoring_tool>Blender 4.5.7 LTS commit date:2026-02-16, commit time:13:34, hash:a9874eeece8d</authoring_tool>
    </contributor>
    <created>2026-06-23T21:52:53</created>
    <modified>2026-06-23T21:52:53</modified>
    <unit name="meter" meter="1"/>
    <up_axis>Z_UP</up_axis>
  </asset>
  <library_cameras>
    <camera id="Camera-camera" name="Camera">
      <optics>
        <technique_common>
          <perspective>
            <xfov sid="xfov">39.59775</xfov>
            <aspect_ratio>1.777778</aspect_ratio>
            <znear sid="znear">0.1</znear>
            <zfar sid="zfar">100</zfar>
          </perspective>
        </technique_common>
      </optics>
      <extra>
        <technique profile="blender">
          <shiftx sid="shiftx" type="float">0</shiftx>
          <shifty sid="shifty" type="float">0</shifty>
          <dof_distance sid="dof_distance" type="float">10</dof_distance>
        </technique>
      </extra>
    </camera>
  </library_cameras>
  <library_lights>
    <light id="Light-light" name="Light">
      <technique_common>
        <point>
          <color sid="color">1000 1000 1000</color>
          <constant_attenuation>1</constant_attenuation>
          <linear_attenuation>0</linear_attenuation>
          <quadratic_attenuation>0</quadratic_attenuation>
        </point>
      </technique_common>
      <extra>
        <technique profile="blender">
          <type sid="type" type="int">0</type>
          <flag sid="flag" type="int">0</flag>
          <mode sid="mode" type="int">2097153</mode>
          <red sid="red" type="float">1</red>
          <green sid="green" type="float">1</green>
          <blue sid="blue" type="float">1</blue>
          <energy sid="blender_energy" type="float">1000</energy>
          <spotsize sid="spotsize" type="float">75</spotsize>
          <spotblend sid="spotblend" type="float">0.15</spotblend>
          <clipsta sid="clipsta" type="float">0.04999995</clipsta>
          <clipend sid="clipend" type="float">40</clipend>
          <radius sid="radius" type="float">0.1</radius>
          <area_shape sid="area_shape" type="int">1</area_shape>
          <area_size sid="area_size" type="float">0.1</area_size>
          <area_sizey sid="area_sizey" type="float">0.1</area_sizey>
          <area_sizez sid="area_sizez" type="float">1</area_sizez>
        </technique>
      </extra>
    </light>
  </library_lights>
  <library_images/>
  <library_geometries>
    <geometry id="magnet1-mesh" name="magnet1">
      <mesh>
        <source id="magnet1-mesh-positions">
          <float_array id="magnet1-mesh-positions-array" count="432">-0.01499998 -0.0568301 0.05499994 -0.01499998 -0.05957102 0.05957102 -0.01499998 -0.05499994 0.0568301 -0.01499998 -0.0563268 0.06173878 -0.01499998 -0.05249994 0.0575 -0.01499998 -0.05249994 0.0625 -0.01499998 0.05249994 0.0575 -0.01499998 0.05249994 0.0625 -0.01499998 0.05499994 0.0568301 -0.01499998 -0.05499994 -0.0568301 -0.01499998 -0.05957102 -0.05957102 -0.01499998 -0.0568301 -0.05499994 -0.01499998 -0.06173878 -0.0563268 -0.01499998 -0.0575 -0.05249994 -0.01499998 -0.0625 -0.05249994 -0.01499998 -0.0575 0.05249994 -0.01499998 -0.0625 0.05249994 -0.01499998 -0.06173878 0.0563268 -0.01499998 0.0563268 0.06173878 -0.01499998 0.05957102 0.05957102 -0.01499998 0.0568301 0.05499994 -0.01499998 0.06173878 0.0563268 -0.01499998 0.0575 0.05249994 -0.01499998 0.0625 0.05249994 -0.01499998 0.0575 -0.05249994 -0.01499998 0.0625 -0.05249994 -0.01499998 0.0568301 -0.05499994 -0.01499998 0.06173878 -0.0563268 -0.01499998 0.05957102 -0.05957102 -0.01499998 0.05499994 -0.0568301 -0.01499998 0.0563268 -0.06173878 -0.01499998 0.05249994 -0.0575 -0.01499998 0.05249994 -0.0625 -0.01499998 -0.05249994 -0.0575 -0.01499998 -0.05249994 -0.0625 -0.01499998 -0.0563268 -0.06173878 0 0.0625 0.05249994 0 0.0625 -0.05249994 0 -0.05249994 0.0625 0 0.05249994 0.0625 0 -0.0625 0.05249994 0 -0.0625 -0.05249994 0 0.05249994 -0.0625 0 -0.05249994 -0.0625 0 0.05957102 -0.05957102 0 0.06173878 -0.0563268 0 -0.05957102 -0.05957102 0 -0.0563268 -0.06173878 0 0.06173878 0.0563268 0 0.05957102 0.05957102 0 0.0563268 0.06173878 0 0.0563268 -0.06173878 0 -0.06173878 -0.0563268 0 -0.05957102 0.05957102 0 -0.06173878 0.0563268 0 -0.0563268 0.06173878 -0.004999995 0.0575 -0.05249994 -0.004999995 0.0575 0.05249994 -0.004999995 0.05249994 0.0575 -0.004999995 -0.05249994 0.0575 -0.004999995 -0.0575 -0.05249994 -0.004999995 -0.0575 0.05249994 -0.004999995 -0.05249994 -0.0575 -0.004999995 0.05249994 -0.0575 -0.004999995 0.0568301 -0.05499994 -0.004999995 0.05499994 -0.0568301 -0.004999995 0.0568301 0.05499994 -0.004999995 0.05499994 0.0568301 -0.004999995 -0.0568301 0.05499994 -0.004999995 -0.05499994 0.0568301 -0.004999995 -0.0568301 -0.05499994 -0.004999995 -0.05499994 -0.0568301 -0.01499998 0.0625 0.05249994 -0.01499998 0.0625 -0.05249994 -0.07499998 0.0625 0.05249994 -0.07499998 0.0625 -0.05249994 -0.01499998 -0.05249994 0.0625 -0.01499998 0.05249994 0.0625 -0.07499998 -0.05249994 0.0625 -0.07499998 0.05249994 0.0625 -0.07499998 -0.0625 0.05249994 -0.07499998 -0.0625 -0.05249994 -0.01499998 -0.0625 0.05249994 -0.01499998 -0.0625 -0.05249994 -0.01499998 0.05249994 -0.0625 -0.01499998 -0.05249994 -0.0625 -0.07499998 0.05249994 -0.0625 -0.07499998 -0.05249994 -0.0625 -0.01499998 -0.0568301 -0.05499994 -0.01499998 -0.05957102 -0.05957102 -0.01499998 -0.05499994 -0.0568301 -0.01499998 -0.0563268 -0.06173878 -0.01499998 -0.05249994 -0.0575 -0.01499998 0.05249994 -0.0575 -0.01499998 0.05499994 -0.0568301 -0.01499998 -0.05499994 0.0568301 -0.01499998 -0.05957102 0.05957102 -0.01499998 -0.0568301 0.05499994 -0.01499998 -0.06173878 0.0563268 -0.01499998 -0.0575 0.05249994 -0.01499998 -0.0575 -0.05249994 -0.01499998 -0.06173878 -0.0563268 -0.01499998 0.0563268 -0.06173878 -0.01499998 0.05957102 -0.05957102 -0.01499998 0.0568301 -0.05499994 -0.01499998 0.06173878 -0.0563268 -0.01499998 0.0575 -0.05249994 -0.01499998 0.0575 0.05249994 -0.01499998 0.0568301 0.05499994 -0.01499998 0.06173878 0.0563268 -0.01499998 0.05957102 0.05957102 -0.01499998 0.05499994 0.0568301 -0.01499998 0.0563268 0.06173878 -0.01499998 0.05249994 0.0575 -0.01499998 -0.05249994 0.0575 -0.01499998 -0.0563268 0.06173878 -0.07499998 0.05957102 -0.05957102 -0.07499998 0.0563268 -0.06173878 -0.07499998 -0.05957102 0.05957102 -0.07499998 -0.0563268 0.06173878 -0.07499998 0.05957102 0.05957102 -0.07499998 0.06173878 0.0563268 -0.07499998 -0.0563268 -0.06173878 -0.07499998 -0.05957102 -0.05957102 -0.07499998 -0.06173878 0.0563268 -0.07499998 -0.06173878 -0.0563268 -0.07499998 0.0563268 0.06173878 -0.07499998 0.06173878 -0.0563268 -0.06999999 0.0575 -0.05249994 -0.06999999 0.0575 0.05249994 -0.06999999 0.05249994 0.0575 -0.06999999 -0.05249994 0.0575 -0.06999999 -0.0575 -0.05249994 -0.06999999 -0.0575 0.05249994 -0.06999999 -0.05249994 -0.0575 -0.06999999 0.05249994 -0.0575 -0.06999999 -0.0568301 -0.05499994 -0.06999999 -0.05499994 -0.0568301 -0.06999999 0.05499994 -0.0568301 -0.06999999 0.0568301 -0.05499994 -0.06999999 0.0568301 0.05499994 -0.06999999 0.05499994 0.0568301 -0.06999999 -0.05499994 0.0568301 -0.06999999 -0.0568301 0.05499994</float_array>
          <technique_common>
            <accessor source="#magnet1-mesh-positions-array" count="144" stride="3">
              <param name="X" type="float"/>
              <param name="Y" type="float"/>
              <param name="Z" type="float"/>
            </accessor>
          </technique_common>
        </source>
        <source id="magnet1-mesh-normals">
          <float_array id="magnet1-mesh-normals-array" count="840">-1 0 0 -1 0 0 -1 0 0 -1 0 0 -1 0 0 -1 0 0 -1 0 0 -1 0 0 -1 0 0 -1 0 0 -1 0 0 -1 0 0 -1 0 0 -1 0 0 -1 0 0 -1 0 0 -1 0 0 -1 0 0 -1 0 0 -1 0 0 -1 0 0 -1 0 0 -1 0 0 -1 0 0 -1 0 0 -1 0 0 -1 0 0 -1 0 0 -1 0 0 -1 0 0 -1 0 0 -1 0 0 -1 0 0 -1 0 0 -1 0 0 -1 0 0 0 1 0 0 1 0 0 0 1 0 0 1 0 -1 0 0 -1 0 0 0 -1 0 0 -1 1 0 0 1 0 0 1 0 0 1 0 0 1 0 0 1 0 0 1 0 0 1 0 0 1 0 0 1 0 0 1 0 0 1 0 0 1 0 0 1 0 0 1 0 0 1 0 0 1 0 0 1 0 0 0 -0.19509 0.9807853 0 -0.19509 0.9807853 0 -0.55557 0.8314698 0 -0.55557 0.8314698 0 -0.8314698 0.55557 0 -0.8314698 0.55557 0 -0.9807853 0.19509 0 -0.9807853 0.19509 0 0.9807853 0.19509 0 0.9807853 0.19509 0 0.8314698 0.55557 0 0.8314698 0.55557 0 0.55557 0.8314698 0 0.55557 0.8314698 0 0.19509 0.9807853 0 0.19509 0.9807853 0 0.19509 -0.9807853 0 0.19509 -0.9807853 0 0.55557 -0.8314698 0 0.55557 -0.8314698 0 0.8314698 -0.55557 0 0.8314698 -0.55557 0 0.9807853 -0.19509 0 0.9807853 -0.19509 0 -0.9807853 -0.19509 0 -0.9807853 -0.19509 0 -0.8314698 -0.55557 0 -0.8314698 -0.55557 0 -0.55557 -0.8314698 0 -0.55557 -0.8314698 0 -0.19509 -0.9807853 0 -0.19509 -0.9807853 0 -1 0 0 -1 0 0 0 -1 0 0 -1 0 1 0 0 1 0 0 0 1 0 0 1 -1 0 0 -1 0 0 -1 0 0 -1 0 0 -1 0 0 -1 0 0 -1 0 0 -1 0 0 -1 0 0 -1 0 0 -1 0 0 -1 0 0 -1 0 0 -1 0 0 0 0.9659257 -0.2588194 0 0.9659257 -0.2588194 0 0.7071068 -0.7071068 0 0.7071068 -0.7071068 0 0.2588194 -0.9659257 0 0.2588194 -0.9659257 0 -0.2588194 -0.9659257 0 -0.2588194 -0.9659257 0 -0.7071068 -0.7071068 0 -0.7071068 -0.7071068 0 -0.9659257 -0.2588194 0 -0.9659257 -0.2588194 0 -0.9659257 0.2588194 0 -0.9659257 0.2588194 0 -0.7071068 0.7071068 0 -0.7071068 0.7071068 0 -0.2588194 0.9659257 0 -0.2588194 0.9659257 0 0.2588194 0.9659257 0 0.2588194 0.9659257 0 0.7071068 0.7071068 0 0.7071068 0.7071068 0 0.9659257 0.2588194 0 0.9659257 0.2588194 0 1 0 0 1 0 0 0 1 0 0 1 0 -1 0 0 -1 0 0 0 -1 0 0 -1 1 0 0 1 0 0 1 0 0 1 0 0 1 0 0 1 0 0 1 0 0 1 0 0 1 0 0 1 0 0 1 0 0 1 0 0 1 0 0 1 0 0 1 0 0 1 0 0 1 0 0 1 0 0 1 0 0 1 0 0 1 0 0 1 0 0 1 0 0 1 0 0 1 0 0 1 0 0 1 0 0 1 0 0 1 0 0 1 0 0 1 0 0 1 0 0 1 0 0 1 0 0 1 0 0 1 0 0 -1 0 0 -1 0 0 -1 0 0 -1 0 0 -1 0 0 -1 0 0 -1 0 0 -1 0 0 -1 0 0 -1 0 0 -1 0 0 -1 0 0 -1 0 0 -1 0 0 -1 0 0 -1 0 0 -1 0 0 -1 0 0 0 -0.19509 0.9807853 0 -0.19509 0.9807853 0 -0.55557 0.8314697 0 -0.55557 0.8314697 0 -0.8314697 0.55557 0 -0.8314697 0.55557 0 -0.9807853 0.19509 0 -0.9807853 0.19509 0 0.9807853 0.19509 0 0.9807853 0.19509 0 0.8314697 0.55557 0 0.8314697 0.55557 0 0.55557 0.8314697 0 0.55557 0.8314697 0 0.19509 0.9807853 0 0.19509 0.9807853 0 0.19509 -0.9807853 0 0.19509 -0.9807853 0 0.55557 -0.8314697 0 0.55557 -0.8314697 0 0.8314697 -0.55557 0 0.8314697 -0.55557 0 0.9807853 -0.19509 0 0.9807853 -0.19509 0 -0.9807853 -0.19509 0 -0.9807853 -0.19509 0 -0.8314697 -0.55557 0 -0.8314697 -0.55557 0 -0.55557 -0.8314697 0 -0.55557 -0.8314697 0 -0.19509 -0.9807853 0 -0.19509 -0.9807853 0 -1 0 0 -1 0 0 0 -1 0 0 -1 0 1 0 0 1 0 0 0 1 0 0 1 1 0 0 1 0 0 1 0 0 1 0 0 1 0 0 1 0 0 1 0 0 1 0 0 1 0 0 1 0 0 1 0 0 1 0 0 1 0 0 1 0 0 0 0.9659256 -0.2588194 0 0.9659256 -0.2588194 0 0.7071068 -0.7071068 0 0.7071068 -0.7071068 0 0.2588194 -0.9659256 0 0.2588194 -0.9659256 0 -0.2588194 -0.9659256 0 -0.2588194 -0.9659256 0 -0.7071068 -0.7071068 0 -0.7071068 -0.7071068 0 -0.9659256 -0.2588194 0 -0.9659256 -0.2588194 0 -0.9659256 0.2588194 0 -0.9659256 0.2588194 0 -0.7071068 0.7071068 0 -0.7071068 0.7071068 0 -0.2588194 0.9659256 0 -0.2588194 0.9659256 0 0.2588194 0.9659256 0 0.2588194 0.9659256 0 0.7071068 0.7071068 0 0.7071068 0.7071068 0 0.9659256 0.2588194 0 0.9659256 0.2588194</float_array>
          <technique_common>
            <accessor source="#magnet1-mesh-normals-array" count="280" stride="3">
              <param name="X" type="float"/>
              <param name="Y" type="float"/>
              <param name="Z" type="float"/>
            </accessor>
          </technique_common>
        </source>
        <vertices id="magnet1-mesh-vertices">
          <input semantic="POSITION" source="#magnet1-mesh-positions"/>
        </vertices>
        <triangles count="280">
          <input semantic="VERTEX" source="#magnet1-mesh-vertices" offset="0"/>
          <input semantic="NORMAL" source="#magnet1-mesh-normals" offset="1"/>
          <p>0 0 1 0 2 0 2 1 1 1 3 1 2 2 3 2 4 2 4 3 3 3 5 3 4 4 5 4 6 4 6 5 5 5 7 5 6 6 7 6 8 6 9 7 10 7 11 7 11 8 10 8 12 8 11 9 12 9 13 9 13 10 12 10 14 10 13 11 14 11 15 11 15 12 14 12 16 12 15 13 16 13 0 13 0 14 16 14 17 14 0 15 17 15 1 15 7 16 18 16 8 16 8 17 18 17 19 17 8 18 19 18 20 18 20 19 19 19 21 19 20 20 21 20 22 20 22 21 21 21 23 21 22 22 23 22 24 22 24 23 23 23 25 23 24 24 25 24 26 24 25 25 27 25 26 25 26 26 27 26 28 26 26 27 28 27 29 27 29 28 28 28 30 28 29 29 30 29 31 29 31 30 30 30 32 30 31 31 32 31 33 31 33 32 32 32 34 32 33 33 34 33 9 33 9 34 34 34 35 34 9 35 35 35 10 35 36 36 37 36 23 36 23 37 37 37 25 37 38 38 39 38 5 38 5 39 39 39 7 39 16 40 14 40 40 40 40 41 14 41 41 41 42 42 43 42 32 42 32 43 43 43 34 43 44 44 45 44 37 44 46 45 47 45 43 45 36 46 48 46 49 46 41 47 37 47 40 47 40 48 37 48 36 48 40 49 36 49 39 49 39 50 36 50 49 50 39 51 49 51 50 51 51 52 44 52 42 52 42 53 44 53 37 53 42 54 37 54 43 54 43 55 37 55 41 55 43 56 41 56 46 56 46 57 41 57 52 57 53 58 54 58 55 58 55 59 54 59 40 59 55 60 40 60 38 60 38 61 40 61 39 61 38 62 5 62 3 62 38 63 3 63 55 63 55 64 3 64 1 64 55 65 1 65 53 65 53 66 1 66 17 66 53 67 17 67 54 67 54 68 17 68 16 68 54 69 16 69 40 69 36 70 23 70 21 70 36 71 21 71 48 71 48 72 21 72 19 72 48 73 19 73 49 73 49 74 19 74 18 74 49 75 18 75 50 75 50 76 18 76 7 76 50 77 7 77 39 77 42 78 32 78 30 78 42 79 30 79 51 79 51 80 30 80 28 80 51 81 28 81 44 81 44 82 28 82 27 82 44 83 27 83 45 83 45 84 27 84 25 84 45 85 25 85 37 85 41 86 14 86 12 86 41 87 12 87 52 87 52 88 12 88 10 88 52 89 10 89 46 89 46 90 10 90 35 90 46 91 35 91 47 91 47 92 35 92 34 92 47 93 34 93 43 93 56 94 57 94 24 94 24 95 57 95 22 95 58 96 59 96 6 96 6 97 59 97 4 97 13 98 15 98 60 98 60 99 15 99 61 99 62 100 63 100 33 100 33 101 63 101 31 101 58 102 63 102 59 102 59 103 63 103 62 103 64 104 65 104 56 104 56 105 65 105 63 105 56 106 63 106 57 106 57 107 63 107 58 107 57 108 58 108 66 108 66 109 58 109 67 109 68 110 69 110 61 110 61 111 69 111 59 111 61 112 59 112 60 112 60 113 59 113 62 113 60 114 62 114 70 114 70 115 62 115 71 115 61 116 15 116 68 116 68 117 15 117 0 117 68 118 0 118 69 118 69 119 0 119 2 119 69 120 2 120 59 120 59 121 2 121 4 121 58 122 6 122 67 122 67 123 6 123 8 123 67 124 8 124 66 124 66 125 8 125 20 125 66 126 20 126 57 126 57 127 20 127 22 127 56 128 24 128 64 128 64 129 24 129 26 129 64 130 26 130 65 130 65 131 26 131 29 131 65 132 29 132 63 132 63 133 29 133 31 133 62 134 33 134 71 134 71 135 33 135 9 135 71 136 9 136 70 136 70 137 9 137 11 137 70 138 11 138 60 138 60 139 11 139 13 139 72 140 73 140 74 140 74 141 73 141 75 141 76 142 77 142 78 142 78 143 77 143 79 143 80 144 81 144 82 144 82 145 81 145 83 145 84 146 85 146 86 146 86 147 85 147 87 147 88 148 89 148 90 148 90 149 89 149 91 149 90 150 91 150 92 150 92 151 91 151 85 151 92 152 85 152 93 152 93 153 85 153 84 153 93 154 84 154 94 154 95 155 96 155 97 155 97 156 96 156 98 156 97 157 98 157 99 157 99 158 98 158 82 158 99 159 82 159 100 159 100 160 82 160 83 160 100 161 83 161 88 161 88 162 83 162 101 162 88 163 101 163 89 163 84 164 102 164 94 164 94 165 102 165 103 165 94 166 103 166 104 166 104 167 103 167 105 167 104 168 105 168 106 168 106 169 105 169 73 169 106 170 73 170 107 170 107 171 73 171 72 171 107 172 72 172 108 172 72 173 109 173 108 173 108 174 109 174 110 174 108 175 110 175 111 175 111 176 110 176 112 176 111 177 112 177 113 177 113 178 112 178 77 178 113 179 77 179 114 179 114 180 77 180 76 180 114 181 76 181 95 181 95 182 76 182 115 182 95 183 115 183 96 183 116 184 117 184 86 184 118 185 119 185 78 185 87 186 78 186 86 186 86 187 78 187 79 187 120 188 121 188 74 188 87 189 122 189 123 189 118 190 78 190 124 190 123 191 125 191 87 191 87 192 125 192 81 192 87 193 81 193 78 193 78 194 81 194 80 194 78 195 80 195 124 195 120 196 74 196 126 196 127 197 116 197 75 197 75 198 116 198 86 198 75 199 86 199 74 199 74 200 86 200 79 200 74 201 79 201 126 201 76 202 78 202 119 202 76 203 119 203 115 203 115 204 119 204 118 204 115 205 118 205 96 205 96 206 118 206 124 206 96 207 124 207 98 207 98 208 124 208 80 208 98 209 80 209 82 209 72 210 74 210 121 210 72 211 121 211 109 211 109 212 121 212 120 212 109 213 120 213 110 213 110 214 120 214 126 214 110 215 126 215 112 215 112 216 126 216 79 216 112 217 79 217 77 217 84 218 86 218 117 218 84 219 117 219 102 219 102 220 117 220 116 220 102 221 116 221 103 221 103 222 116 222 127 222 103 223 127 223 105 223 105 224 127 224 75 224 105 225 75 225 73 225 83 226 81 226 125 226 83 227 125 227 101 227 101 228 125 228 123 228 101 229 123 229 89 229 89 230 123 230 122 230 89 231 122 231 91 231 91 232 122 232 87 232 91 233 87 233 85 233 106 234 107 234 128 234 128 235 107 235 129 235 113 236 114 236 130 236 130 237 114 237 131 237 132 238 133 238 100 238 100 239 133 239 99 239 92 240 93 240 134 240 134 241 93 241 135 241 132 242 136 242 137 242 138 243 139 243 135 243 135 244 139 244 128 244 135 245 128 245 134 245 129 246 140 246 141 246 142 247 143 247 131 247 131 248 143 248 133 248 131 249 133 249 132 249 137 250 134 250 132 250 132 251 134 251 128 251 132 252 128 252 131 252 131 253 128 253 129 253 131 254 129 254 130 254 130 255 129 255 141 255 99 256 133 256 97 256 97 257 133 257 143 257 97 258 143 258 95 258 95 259 143 259 142 259 95 260 142 260 114 260 114 261 142 261 131 261 113 262 130 262 111 262 111 263 130 263 141 263 111 264 141 264 108 264 108 265 141 265 140 265 108 266 140 266 107 266 107 267 140 267 129 267 106 268 128 268 104 268 104 269 128 269 139 269 104 270 139 270 94 270 94 271 139 271 138 271 94 272 138 272 93 272 93 273 138 273 135 273 92 274 134 274 90 274 90 275 134 275 137 275 90 276 137 276 88 276 88 277 137 277 136 277 88 278 136 278 100 278 100 279 136 279 132 279</p>
        </triangles>
      </mesh>
    </geometry>
  </library_geometries>
  <library_visual_scenes>
    <visual_scene id="Scene" name="Scene">
      <node id="magnet1" name="magnet1" type="NODE">
        <matrix sid="transform">1 0 0 0 0 1 0 0 0 0 1 0 0 0 0 1</matrix>
        <instance_geometry url="#magnet1-mesh" name="magnet1"/>
      </node>
      <node id="Camera" name="Camera" type="NODE">
        <matrix sid="transform">0.6859207 -0.3240135 0.6515582 7.358891 0.7276763 0.3054208 -0.6141704 -6.925791 0 0.8953956 0.4452714 4.958309 0 0 0 1</matrix>
        <instance_camera url="#Camera-camera"/>
      </node>
      <node id="Light" name="Light" type="NODE">
        <matrix sid="transform">-0.2908646 -0.7711008 0.5663932 4.076245 0.9551712 -0.1998834 0.2183912 1.005454 -0.05518906 0.6045247 0.7946723 5.903862 0 0 0 1</matrix>
        <instance_light url="#Light-light"/>
      </node>
    </visual_scene>
  </library_visual_scenes>
  <scene>
    <instance_visual_scene url="#Scene"/>
  </scene>
</COLLADA>