<?xml version="1.0" encoding="utf-8"?>
<COLLADA xmlns="http://www.collada.org/2005/11/COLLADASchema" version="1.4.1" xmlns:xsi="http://www.w3.org/2001/XMLSchema-instance">
  <asset>
    <contributor>
      <author>Blender User</author>
      <authoring_tool>Blender 4.5.7 LTS commit date:2026-02-16, commit time:13:34, hash:a9874eeece8d</authoring_tool>
    </contributor>
    <created>2026-06-24T00:00:46</created>
    <modified>2026-06-24T00:00:46</modified>
    <unit name="meter" meter="1"/>
    <up_axis>Z_UP</up_axis>
  </asset>
  <library_cameras>
    <camera id="Camera-camera" name="Camera">
      <optics>
        <technique_common>
          <perspective>
            <xfov sid="xfov">39.59775</xfov>
            <aspect_ratio>1.777778</aspect_ratio>
            <znear sid="znear">0.1</znear>
            <zfar sid="zfar">100</zfar>
          </perspective>
        </technique_common>
      </optics>
      <extra>
        <technique profile="blender">
          <shiftx sid="shiftx" type="float">0</shiftx>
          <shifty sid="shifty" type="float">0</shifty>
          <dof_distance sid="dof_distance" type="float">10</dof_distance>
        </technique>
      </extra>
    </camera>
  </library_cameras>
  <library_lights>
    <light id="Light-light" name="Light">
      <technique_common>
        <point>
          <color sid="color">1000 1000 1000</color>
          <constant_attenuation>1</constant_attenuation>
          <linear_attenuation>0</linear_attenuation>
          <quadratic_attenuation>0</quadratic_attenuation>
        </point>
      </technique_common>
      <extra>
        <technique profile="blender">
          <type sid="type" type="int">0</type>
          <flag sid="flag" type="int">0</flag>
          <mode sid="mode" type="int">2097153</mode>
          <red sid="red" type="float">1</red>
          <green sid="green" type="float">1</green>
          <blue sid="blue" type="float">1</blue>
          <energy sid="blender_energy" type="float">1000</energy>
          <spotsize sid="spotsize" type="float">75</spotsize>
          <spotblend sid="spotblend" type="float">0.15</spotblend>
          <clipsta sid="clipsta" type="float">0.04999995</clipsta>
          <clipend sid="clipend" type="float">40</clipend>
          <radius sid="radius" type="float">0.1</radius>
          <area_shape sid="area_shape" type="int">1</area_shape>
          <area_size sid="area_size" type="float">0.1</area_size>
          <area_sizey sid="area_sizey" type="float">0.1</area_sizey>
          <area_sizez sid="area_sizez" type="float">1</area_sizez>
        </technique>
      </extra>
    </light>
  </library_lights>
  <library_effects>
    <effect id="Material_003-effect">
      <profile_COMMON>
        <newparam sid="Task5_BandAid_Fixed_png-surface">
          <surface type="2D">
            <init_from>Task5_BandAid_Fixed_png</init_from>
          </surface>
        </newparam>
        <newparam sid="Task5_BandAid_Fixed_png-sampler">
          <sampler2D>
            <source>Task5_BandAid_Fixed_png-surface</source>
          </sampler2D>
        </newparam>
        <technique sid="common">
          <lambert>
            <emission>
              <color sid="emission">0 0 0 1</color>
            </emission>
            <diffuse>
              <texture texture="Task5_BandAid_Fixed_png-sampler" texcoord="UVMap"/>
            </diffuse>
            <index_of_refraction>
              <float sid="ior">1.5</float>
            </index_of_refraction>
          </lambert>
        </technique>
      </profile_COMMON>
    </effect>
    <effect id="Material_004-effect">
      <profile_COMMON>
        <technique sid="common">
          <lambert>
            <emission>
              <color sid="emission">0 0 0 1</color>
            </emission>
            <diffuse>
              <color sid="diffuse">0 0 0 1</color>
            </diffuse>
            <index_of_refraction>
              <float sid="ior">1.5</float>
            </index_of_refraction>
          </lambert>
        </technique>
      </profile_COMMON>
    </effect>
  </library_effects>
  <library_images>
    <image id="Task5_BandAid_Fixed_png" name="Task5_BandAid_Fixed_png">
      <init_from>Task5_BandAid_Fixed.png</init_from>
    </image>
  </library_images>
  <library_materials>
    <material id="Material_003-material" name="Material.003">
      <instance_effect url="#Material_003-effect"/>
    </material>
    <material id="Material_004-material" name="Material.004">
      <instance_effect url="#Material_004-effect"/>
    </material>
  </library_materials>
  <library_geometries>
    <geometry id="base_link_001-mesh" name="base_link.001">
      <mesh>
        <source id="base_link_001-mesh-positions">
          <float_array id="base_link_001-mesh-positions-array" count="144">0.03849804 -0.0419346 -2.54001e-4 0.04055809 -0.04055809 -2.54001e-4 0.03606796 -0.042418 -2.54001e-4 0.0381 -0.0381 -2.54001e-4 -0.03606796 -0.042418 -2.54001e-4 -0.0381 -0.0381 -2.54001e-4 -0.03849804 -0.0419346 -2.54001e-4 -0.04055809 -0.04055809 -2.54001e-4 -0.0419346 -0.03849804 -2.54001e-4 -0.042418 -0.03606796 -2.54001e-4 -0.042418 0.03606796 -2.54001e-4 -0.0381 0.0381 -2.54001e-4 -0.0419346 0.03849804 -2.54001e-4 -0.04055809 0.04055809 -2.54001e-4 -0.03849804 0.0419346 -2.54001e-4 -0.03606796 0.042418 -2.54001e-4 0.03606796 0.042418 -2.54001e-4 0.0381 0.0381 -2.54001e-4 0.03849804 0.0419346 -2.54001e-4 0.04055809 0.04055809 -2.54001e-4 0.0419346 0.03849804 -2.54001e-4 0.042418 0.03606796 -2.54001e-4 0.042418 -0.03606796 -2.54001e-4 0.0419346 -0.03849804 -2.54001e-4 -0.042418 0.03606796 -0.02819395 -0.042418 -0.03606796 -0.02819395 -0.03606796 -0.042418 -0.02819395 0.03606796 -0.042418 -0.02819395 0.042418 0.03606796 -0.02819395 0.042418 -0.03606796 -0.02819395 -0.03606796 0.042418 -0.02819395 0.03606796 0.042418 -0.02819395 0.03849804 0.0419346 -0.02819395 0.04055809 0.04055809 -0.02819395 0.0419346 -0.03849804 -0.02819395 0.04055809 -0.04055809 -0.02819395 -0.0419346 0.03849804 -0.02819395 -0.04055809 0.04055809 -0.02819395 -0.03849804 -0.0419346 -0.02819395 -0.04055809 -0.04055809 -0.02819395 0.0419346 0.03849804 -0.02819395 -0.03849804 0.0419346 -0.02819395 0.03849804 -0.0419346 -0.02819395 -0.0419346 -0.03849804 -0.02819395 0.0381 0.0381 0 0.0381 -0.0381 0 -0.0381 0.0381 0 -0.0381 -0.0381 0</float_array>
          <technique_common>
            <accessor source="#base_link_001-mesh-positions-array" count="48" stride="3">
              <param name="X" type="float"/>
              <param name="Y" type="float"/>
              <param name="Z" type="float"/>
            </accessor>
          </technique_common>
        </source>
        <source id="base_link_001-mesh-normals">
          <float_array id="base_link_001-mesh-normals-array" count="276">0 0 1 0 0 1 0 0 1 0 0 1 0 0 1 0 0 1 0 0 1 0 0 1 0 0 1 0 0 1 0 0 1 0 0 1 0 0 1 0 0 1 0 0 1 0 0 1 0 0 1 0 0 1 0 0 1 0 0 1 0 0 1 0 0 1 0 0 1 0 0 1 -1 0 0 -1 0 0 0 -1 0 0 -1 0 1 0 0 1 0 0 0 1 0 0 1 0 0 0 -1 0 0 -1 0 0 -1 0 0 -1 0 0 -1 0 0 -1 0 0 -1 0 0 -1 0 0 -1 0 0 -1 0 0 -1 0 0 -1 0 0 -1 0 0 -1 0 0 -1 0 0 -1 0 0 -1 0 0 -1 -0.1950898 0.9807854 0 -0.1950898 0.9807854 0 -0.5555698 0.8314699 0 -0.5555698 0.8314699 0 -0.8314699 0.5555698 0 -0.8314699 0.5555698 0 -0.9807854 0.1950898 0 -0.9807854 0.1950898 0 0.1950898 0.9807854 0 0.1950898 0.9807854 0 0.5555698 0.8314699 0 0.5555698 0.8314699 0 0.8314699 0.5555698 0 0.8314699 0.5555698 0 0.9807854 0.1950898 0 0.9807854 0.1950898 0 -0.1950898 -0.9807854 0 -0.1950898 -0.9807854 0 -0.5555698 -0.8314699 0 -0.5555698 -0.8314699 0 -0.8314699 -0.5555698 0 -0.8314699 -0.5555698 0 -0.9807854 -0.1950898 0 -0.9807854 -0.1950898 0 0.1950898 -0.9807854 0 0.1950898 -0.9807854 0 0.5555698 -0.8314699 0 0.5555698 -0.8314699 0 0.8314699 -0.5555698 0 0.8314699 -0.5555698 0 0.9807854 -0.1950898 0 0.9807854 -0.1950898 0 1 0 0 1 0 0 0 1 0 0 1 0 -1 0 0 -1 0 0 0 -1 0 0 -1 0 0 0 1 0 0 1</float_array>
          <technique_common>
            <accessor source="#base_link_001-mesh-normals-array" count="92" stride="3">
              <param name="X" type="float"/>
              <param name="Y" type="float"/>
              <param name="Z" type="float"/>
            </accessor>
          </technique_common>
        </source>
        <source id="base_link_001-mesh-map-0">
          <float_array id="base_link_001-mesh-map-0-array" count="552">0 0 0 0 0 0 0 0 0 0 0 0 0 0 0 0 0 0 0 0 0 0 0 0 0 0 0 0 0 0 0 0 0 0 0 0 0 0 0 0 0 0 0 0 0 0 0 0 0 0 0 0 0 0 0 0 0 0 0 0 0 0 0 0 0 0 0 0 0 0 0 0 0 0 0 0 0 0 0 0 0 0 0 0 0 0 0 0 0 0 0 0 0 0 0 0 0 0 0 0 0 0 0 0 0 0 0 0 0 0 0 0 0 0 0 0 0 0 0 0 0 0 0 0 0 0 0 0 0 0 0 0 0 0 0 0 0 0 0 0 0 0 0 0 0 0 0 0 0 0 0 0 0 0 0 0 0 0 0 0 0 0 0 0 0 0 0 0 0 0 0 0 0 0 0 0 0 0 0 0 0 0 0 0 0 0 0 0 0 0 0 0 0 0 0 0 0 0 0 0 0 0 0 0 0 0 0 0 0 0 0 0 0 0 0 0 0 0 0 0 0 0 0 0 0 0 0 0 0 0 0 0 0 0 0 0 0 0 0 0 0 0 0 0 0 0 0 0 0 0 0 0 0 0 0 0 0 0 0 0 0 0 0 0 0 0 0 0 0 0 0 0 0 0 0 0 0 0 0 0 0 0 0 0 0 0 0 0 0 0 0 0 0 0 0 0 0 0 0 0 0 0 0 0 0 0 0 0 0 0 0 0 0 0 0 0 0 0 0 0 0 0 0 0 0 0 0 0 0 0 0 0 0 0 0 0 0 0 0 0 0 0 0 0 0 0 0 0 0 0 0 0 0 0 0 0 0 0 0 0 0 0 0 0 0 0 0 0 0 0 0 0 0 0 0 0 0 0 0 0 0 0 0 0 0 0 0 0 0 0 0 0 0 0 0 0 0 0 0 0 0 0 0 0 0 0 0 0 0 0 0 0 0 0 0 0 0 0 0 0 0 0 0 0 0 0 0 0 0 0 0 0 0 0 0 0 0 0 0 0 0 0 0 0 0 0 0 0 0 0 0 0 0 0 0 0 0 0 0 0 0 0 0 0 0 0 0 0 0 0 0 0 0 0 0 0 0 0 0 0 0 0 0 0 0 0 0 0 0 0 0 0 0 0 0 0 0 0 0 0 0 0 0 0 0 0 0 0 0 0 0 0 0 0 0 0 0 0 0 0 0 0 0 0 0 0 0 0 0 0 0 0 0 0 0 0 0 0 0 0 1 1 0 1 1 0 1 0 0 1 0 0</float_array>
          <technique_common>
            <accessor source="#base_link_001-mesh-map-0-array" count="276" stride="2">
              <param name="S" type="float"/>
              <param name="T" type="float"/>
            </accessor>
          </technique_common>
        </source>
        <source id="base_link_001-mesh-colors-Attribute" name="Attribute">
          <float_array id="base_link_001-mesh-colors-Attribute-array" count="1104">1 1 1 1 1 1 1 1 1 1 1 1 1 1 1 1 1 1 1 1 1 1 1 1 1 1 1 1 1 1 1 1 1 1 1 1 1 1 1 1 1 1 1 1 1 1 1 1 1 1 1 1 1 1 1 1 1 1 1 1 1 1 1 1 1 1 1 1 1 1 1 1 1 1 1 1 1 1 1 1 1 1 1 1 1 1 1 1 1 1 1 1 1 1 1 1 1 1 1 1 1 1 1 1 1 1 1 1 1 1 1 1 1 1 1 1 1 1 1 1 1 1 1 1 1 1 1 1 1 1 1 1 1 1 1 1 1 1 1 1 1 1 1 1 1 1 1 1 1 1 1 1 1 1 1 1 1 1 1 1 1 1 1 1 1 1 1 1 1 1 1 1 1 1 1 1 1 1 1 1 1 1 1 1 1 1 1 1 1 1 1 1 1 1 1 1 1 1 1 1 1 1 1 1 1 1 1 1 1 1 1 1 1 1 1 1 1 1 1 1 1 1 1 1 1 1 1 1 1 1 1 1 1 1 1 1 1 1 1 1 1 1 1 1 1 1 1 1 1 1 1 1 1 1 1 1 1 1 1 1 1 1 1 1 1 1 1 1 1 1 1 1 1 1 1 1 1 1 1 1 1 1 1 1 1 1 1 1 1 1 1 1 1 1 1 1 1 1 1 1 1 1 1 1 1 1 1 1 1 1 1 1 1 1 1 1 1 1 1 1 1 1 1 1 1 1 1 1 1 1 1 1 1 1 1 1 1 1 1 1 1 1 1 1 1 1 1 1 1 1 1 1 1 1 1 1 1 1 1 1 1 1 1 1 1 1 1 1 1 1 1 1 1 1 1 1 1 1 1 1 1 1 1 1 1 1 1 1 1 1 1 1 1 1 1 1 1 1 1 1 1 1 1 1 1 1 1 1 1 1 1 1 1 1 1 1 1 1 1 1 1 1 1 1 1 1 1 1 1 1 1 1 1 1 1 1 1 1 1 1 1 1 1 1 1 1 1 1 1 1 1 1 1 1 1 1 1 1 1 1 1 1 1 1 1 1 1 1 1 1 1 1 1 1 1 1 1 1 1 1 1 1 1 1 1 1 1 1 1 1 1 1 1 1 1 1 1 1 1 1 1 1 1 1 1 1 1 1 1 1 1 1 1 1 1 1 1 1 1 1 1 1 1 1 1 1 1 1 1 1 1 1 1 1 1 1 1 1 1 1 1 1 1 1 1 1 1 1 1 1 1 1 1 1 1 1 1 1 1 1 1 1 1 1 1 1 1 1 1 1 1 1 1 1 1 1 1 1 1 1 1 1 1 1 1 1 1 1 1 1 1 1 1 1 1 1 1 1 1 1 1 1 1 1 1 1 1 1 1 1 1 1 1 1 1 1 1 1 1 1 1 1 1 1 1 1 1 1 1 1 1 1 1 1 1 1 1 1 1 1 1 1 1 1 1 1 1 1 1 1 1 1 1 1 1 1 1 1 1 1 1 1 1 1 1 1 1 1 1 1 1 1 1 1 1 1 1 1 1 1 1 1 1 1 1 1 1 1 1 1 1 1 1 1 1 1 1 1 1 1 1 1 1 1 1 1 1 1 1 1 1 1 1 1 1 1 1 1 1 1 1 1 1 1 1 1 1 1 1 1 1 1 1 1 1 1 1 1 1 1 1 1 1 1 1 1 1 1 1 1 1 1 1 1 1 1 1 1 1 1 1 1 1 1 1 1 1 1 1 1 1 1 1 1 1 1 1 1 1 1 1 1 1 1 1 1 1 1 1 1 1 1 1 1 1 1 1 1 1 1 1 1 1 1 1 1 1 1 1 1 1 1 1 1 1 1 1 1 1 1 1 1 1 1 1 1 1 1 1 1 1 1 1 1 1 1 1 1 1 1 1 1 1 1 1 1 1 1 1 1 1 1 1 1 1 1 1 1 1 1 1 1 1 1 1 1 1 1 1 1 1 1 1 1 1 1 1 1 1 1 1 1 1 1 1 1 1 1 1 1 1 1 1 1 1 1 1 1 1 1 1 1 1 1 1 1 1 1 1 1 1 1 1 1 1 1 1 1 1 1 1 1 1 1 1 1 1 1 1 1 1 1 1 1 1 1 1 1 1 1 1 1 1 1 1 1 1 1 1 1 1 1 1 1 1 1 1 1 1 1 1 1 1 1 1 1 1 1 1 1 1 1 1 1 1 1 1 1 1 1 1 1 1 1 1 1 1 1 1 1 1 1 1 1 1 1 1 1 1 1 1 1 1 1 1 1 1 1 1 1 1 1 1 1 1 1 1 1 1 1 1 1 1 1 1 1 1 1 1 1 1 1 1 1 1 1 1 1 1 1 1 1 1 1 1 1 1 1 1 1 1 1 1 1 1 1 1 1 1 1 1 1 1 1 1 1 1 1 1 1 1 1 1 1 1 1 1 1 1 1 1 1 1 1 1 1 1 1 1 1 1 1 1 1 1 1 1 1 1 1 1 1 1 1</float_array>
          <technique_common>
            <accessor source="#base_link_001-mesh-colors-Attribute-array" count="276" stride="4">
              <param name="R" type="float"/>
              <param name="G" type="float"/>
              <param name="B" type="float"/>
              <param name="A" type="float"/>
            </accessor>
          </technique_common>
        </source>
        <vertices id="base_link_001-mesh-vertices">
          <input semantic="POSITION" source="#base_link_001-mesh-positions"/>
        </vertices>
        <triangles material="Material_003-material" count="92">
          <input semantic="VERTEX" source="#base_link_001-mesh-vertices" offset="0"/>
          <input semantic="NORMAL" source="#base_link_001-mesh-normals" offset="1"/>
          <input semantic="TEXCOORD" source="#base_link_001-mesh-map-0" offset="2" set="0"/>
          <input semantic="COLOR" source="#base_link_001-mesh-colors-Attribute" offset="3" set="0"/>
          <p>0 0 0 0 1 0 1 1 2 0 2 2 2 1 3 3 1 1 4 4 3 1 5 5 2 2 6 6 3 2 7 7 4 2 8 8 4 3 9 9 3 3 10 10 5 3 11 11 4 4 12 12 5 4 13 13 6 4 14 14 6 5 15 15 5 5 16 16 7 5 17 17 8 6 18 18 7 6 19 19 9 6 20 20 9 7 21 21 7 7 22 22 5 7 23 23 9 8 24 24 5 8 25 25 10 8 26 26 10 9 27 27 5 9 28 28 11 9 29 29 10 10 30 30 11 10 31 31 12 10 32 32 12 11 33 33 11 11 34 34 13 11 35 35 14 12 36 36 13 12 37 37 15 12 38 38 15 13 39 39 13 13 40 40 11 13 41 41 15 14 42 42 11 14 43 43 16 14 44 44 16 15 45 45 11 15 46 46 17 15 47 47 16 16 48 48 17 16 49 49 18 16 50 50 18 17 51 51 17 17 52 52 19 17 53 53 20 18 54 54 19 18 55 55 21 18 56 56 21 19 57 57 19 19 58 58 17 19 59 59 21 20 60 60 17 20 61 61 22 20 62 62 22 21 63 63 17 21 64 64 3 21 65 65 22 22 66 66 3 22 67 67 23 22 68 68 23 23 69 69 3 23 70 70 1 23 71 71 24 24 72 72 25 24 73 73 10 24 74 74 10 25 75 75 25 25 76 76 9 25 77 77 26 26 78 78 27 26 79 79 4 26 80 80 4 27 81 81 27 27 82 82 2 27 83 83 21 28 84 84 22 28 85 85 28 28 86 86 28 29 87 87 22 29 88 88 29 29 89 89 15 30 90 90 16 30 91 91 30 30 92 92 30 31 93 93 16 31 94 94 31 31 95 95 24 32 96 96 28 32 97 97 25 32 98 98 25 33 99 99 28 33 100 100 29 33 101 101 31 34 102 102 32 34 103 103 33 34 104 104 29 35 105 105 34 35 106 106 35 35 107 107 24 36 108 108 36 36 109 109 37 36 110 110 26 37 111 111 38 37 112 112 39 37 113 113 33 38 114 114 40 38 115 115 31 38 116 116 31 39 117 117 40 39 118 118 28 39 119 119 31 40 120 120 28 40 121 121 30 40 122 122 30 41 123 123 28 41 124 124 24 41 125 125 30 42 126 126 24 42 127 127 41 42 128 128 41 43 129 129 24 43 130 130 37 43 131 131 35 44 132 132 42 44 133 133 29 44 134 134 29 45 135 135 42 45 136 136 27 45 137 137 29 46 138 138 27 46 139 139 25 46 140 140 25 47 141 141 27 47 142 142 26 47 143 143 25 48 144 144 26 48 145 145 43 48 146 146 43 49 147 147 26 49 148 148 39 49 149 149 15 50 150 150 30 50 151 151 41 50 152 152 15 51 153 153 41 51 154 154 14 51 155 155 14 52 156 156 41 52 157 157 37 52 158 158 14 53 159 159 37 53 160 160 13 53 161 161 13 54 162 162 37 54 163 163 36 54 164 164 13 55 165 165 36 55 166 166 12 55 167 167 12 56 168 168 36 56 169 169 24 56 170 170 12 57 171 171 24 57 172 172 10 57 173 173 31 58 174 174 16 58 175 175 18 58 176 176 31 59 177 177 18 59 178 178 32 59 179 179 32 60 180 180 18 60 181 181 19 60 182 182 32 61 183 183 19 61 184 184 33 61 185 185 33 62 186 186 19 62 187 187 20 62 188 188 33 63 189 189 20 63 190 190 40 63 191 191 40 64 192 192 20 64 193 193 21 64 194 194 40 65 195 195 21 65 196 196 28 65 197 197 26 66 198 198 4 66 199 199 6 66 200 200 26 67 201 201 6 67 202 202 38 67 203 203 38 68 204 204 6 68 205 205 7 68 206 206 38 69 207 207 7 69 208 208 39 69 209 209 39 70 210 210 7 70 211 211 8 70 212 212 39 71 213 213 8 71 214 214 43 71 215 215 43 72 216 216 8 72 217 217 9 72 218 218 43 73 219 219 9 73 220 220 25 73 221 221 2 74 222 222 27 74 223 223 42 74 224 224 2 75 225 225 42 75 226 226 0 75 227 227 0 76 228 228 42 76 229 229 35 76 230 230 0 77 231 231 35 77 232 232 1 77 233 233 1 78 234 234 35 78 235 235 34 78 236 236 1 79 237 237 34 79 238 238 23 79 239 239 23 80 240 240 34 80 241 241 29 80 242 242 23 81 243 243 29 81 244 244 22 81 245 245 44 82 246 246 45 82 247 247 17 82 248 248 17 83 249 249 45 83 250 250 3 83 251 251 46 84 252 252 44 84 253 253 11 84 254 254 11 85 255 255 44 85 256 256 17 85 257 257 47 86 258 258 46 86 259 259 5 86 260 260 5 87 261 261 46 87 262 262 11 87 263 263 45 88 264 264 47 88 265 265 3 88 266 266 3 89 267 267 47 89 268 268 5 89 269 269 46 90 270 270 47 90 271 271 44 90 272 272 44 91 273 273 47 91 274 274 45 91 275 275</p>
        </triangles>
      </mesh>
    </geometry>
  </library_geometries>
  <library_visual_scenes>
    <visual_scene id="Scene" name="Scene">
      <node id="base_link_001" name="base_link.001" type="NODE">
        <matrix sid="transform">1 0 0 0 0 1 0 0 0 0 1 0 0 0 0 1</matrix>
        <instance_geometry url="#base_link_001-mesh" name="base_link.001">
          <bind_material>
            <technique_common>
              <instance_material symbol="Material_003-material" target="#Material_003-material">
                <bind_vertex_input semantic="UVMap" input_semantic="TEXCOORD" input_set="0"/>
              </instance_material>
              <instance_material symbol="Material_004-material" target="#Material_004-material">
                <bind_vertex_input semantic="UVMap" input_semantic="TEXCOORD" input_set="0"/>
              </instance_material>
            </technique_common>
          </bind_material>
        </instance_geometry>
      </node>
      <node id="Camera" name="Camera" type="NODE">
        <matrix sid="transform">0.6859207 -0.3240135 0.6515582 7.358891 0.7276763 0.3054208 -0.6141704 -6.925791 0 0.8953956 0.4452714 4.958309 0 0 0 1</matrix>
        <instance_camera url="#Camera-camera"/>
      </node>
      <node id="Light" name="Light" type="NODE">
        <matrix sid="transform">-0.2908646 -0.7711008 0.5663932 4.076245 0.9551712 -0.1998834 0.2183912 1.005454 -0.05518906 0.6045247 0.7946723 5.903862 0 0 0 1</matrix>
        <instance_light url="#Light-light"/>
      </node>
    </visual_scene>
  </library_visual_scenes>
  <scene>
    <instance_visual_scene url="#Scene"/>
  </scene>
</COLLADA>