<?xml version="1.0" encoding="utf-8"?>
<COLLADA xmlns="http://www.collada.org/2005/11/COLLADASchema" version="1.4.1" xmlns:xsi="http://www.w3.org/2001/XMLSchema-instance">
  <asset>
    <contributor>
      <author>Blender User</author>
      <authoring_tool>Blender 4.5.7 LTS commit date:2026-02-16, commit time:13:34, hash:a9874eeece8d</authoring_tool>
    </contributor>
    <created>2026-06-24T00:02:11</created>
    <modified>2026-06-24T00:02:11</modified>
    <unit name="meter" meter="1"/>
    <up_axis>Z_UP</up_axis>
  </asset>
  <library_cameras>
    <camera id="Camera_001-camera" name="Camera.001">
      <optics>
        <technique_common>
          <perspective>
            <xfov sid="xfov">39.59775</xfov>
            <aspect_ratio>1.777778</aspect_ratio>
            <znear sid="znear">0.1</znear>
            <zfar sid="zfar">100</zfar>
          </perspective>
        </technique_common>
      </optics>
      <extra>
        <technique profile="blender">
          <shiftx sid="shiftx" type="float">0</shiftx>
          <shifty sid="shifty" type="float">0</shifty>
          <dof_distance sid="dof_distance" type="float">10</dof_distance>
        </technique>
      </extra>
    </camera>
    <camera id="Camera-camera" name="Camera">
      <optics>
        <technique_common>
          <perspective>
            <xfov sid="xfov">39.59775</xfov>
            <aspect_ratio>1.777778</aspect_ratio>
            <znear sid="znear">0.1</znear>
            <zfar sid="zfar">100</zfar>
          </perspective>
        </technique_common>
      </optics>
      <extra>
        <technique profile="blender">
          <shiftx sid="shiftx" type="float">0</shiftx>
          <shifty sid="shifty" type="float">0</shifty>
          <dof_distance sid="dof_distance" type="float">10</dof_distance>
        </technique>
      </extra>
    </camera>
  </library_cameras>
  <library_lights>
    <light id="Light_001-light" name="Light.001">
      <technique_common>
        <point>
          <color sid="color">1000 1000 1000</color>
          <constant_attenuation>1</constant_attenuation>
          <linear_attenuation>0</linear_attenuation>
          <quadratic_attenuation>0</quadratic_attenuation>
        </point>
      </technique_common>
      <extra>
        <technique profile="blender">
          <type sid="type" type="int">0</type>
          <flag sid="flag" type="int">0</flag>
          <mode sid="mode" type="int">2097153</mode>
          <red sid="red" type="float">1</red>
          <green sid="green" type="float">1</green>
          <blue sid="blue" type="float">1</blue>
          <energy sid="blender_energy" type="float">1000</energy>
          <spotsize sid="spotsize" type="float">75</spotsize>
          <spotblend sid="spotblend" type="float">0.15</spotblend>
          <clipsta sid="clipsta" type="float">0.04999995</clipsta>
          <clipend sid="clipend" type="float">40</clipend>
          <radius sid="radius" type="float">0.1</radius>
          <area_shape sid="area_shape" type="int">1</area_shape>
          <area_size sid="area_size" type="float">0.1</area_size>
          <area_sizey sid="area_sizey" type="float">0.1</area_sizey>
          <area_sizez sid="area_sizez" type="float">1</area_sizez>
        </technique>
      </extra>
    </light>
    <light id="Light-light" name="Light">
      <technique_common>
        <point>
          <color sid="color">1000 1000 1000</color>
          <constant_attenuation>1</constant_attenuation>
          <linear_attenuation>0</linear_attenuation>
          <quadratic_attenuation>0</quadratic_attenuation>
        </point>
      </technique_common>
      <extra>
        <technique profile="blender">
          <type sid="type" type="int">0</type>
          <flag sid="flag" type="int">0</flag>
          <mode sid="mode" type="int">2097153</mode>
          <red sid="red" type="float">1</red>
          <green sid="green" type="float">1</green>
          <blue sid="blue" type="float">1</blue>
          <energy sid="blender_energy" type="float">1000</energy>
          <spotsize sid="spotsize" type="float">75</spotsize>
          <spotblend sid="spotblend" type="float">0.15</spotblend>
          <clipsta sid="clipsta" type="float">0.04999995</clipsta>
          <clipend sid="clipend" type="float">40</clipend>
          <radius sid="radius" type="float">0.1</radius>
          <area_shape sid="area_shape" type="int">1</area_shape>
          <area_size sid="area_size" type="float">0.1</area_size>
          <area_sizey sid="area_sizey" type="float">0.1</area_sizey>
          <area_sizez sid="area_sizez" type="float">1</area_sizez>
        </technique>
      </extra>
    </light>
  </library_lights>
  <library_effects>
    <effect id="Material_005-effect">
      <profile_COMMON>
        <newparam sid="Task5_Pill_Fixed_png-surface">
          <surface type="2D">
            <init_from>Task5_Pill_Fixed_png</init_from>
          </surface>
        </newparam>
        <newparam sid="Task5_Pill_Fixed_png-sampler">
          <sampler2D>
            <source>Task5_Pill_Fixed_png-surface</source>
          </sampler2D>
        </newparam>
        <technique sid="common">
          <lambert>
            <emission>
              <color sid="emission">0 0 0 1</color>
            </emission>
            <diffuse>
              <texture texture="Task5_Pill_Fixed_png-sampler" texcoord="base_link-mesh-map-0"/>
            </diffuse>
            <index_of_refraction>
              <float sid="ior">1.5</float>
            </index_of_refraction>
          </lambert>
        </technique>
      </profile_COMMON>
    </effect>
    <effect id="Material_006-effect">
      <profile_COMMON>
        <technique sid="common">
          <lambert>
            <emission>
              <color sid="emission">0 0 0 1</color>
            </emission>
            <diffuse>
              <color sid="diffuse">0.003442196 0.003442196 0.003442196 1</color>
            </diffuse>
            <index_of_refraction>
              <float sid="ior">1.5</float>
            </index_of_refraction>
          </lambert>
        </technique>
      </profile_COMMON>
    </effect>
  </library_effects>
  <library_images>
    <image id="Task5_Pill_Fixed_png" name="Task5_Pill_Fixed_png">
      <init_from>Task5_Pill_Fixed.png</init_from>
    </image>
  </library_images>
  <library_materials>
    <material id="Material_005-material" name="Material.005">
      <instance_effect url="#Material_005-effect"/>
    </material>
    <material id="Material_006-material" name="Material.006">
      <instance_effect url="#Material_006-effect"/>
    </material>
  </library_materials>
  <library_geometries>
    <geometry id="base_link_002-mesh" name="base_link.002">
      <mesh>
        <source id="base_link_002-mesh-positions">
          <float_array id="base_link_002-mesh-positions-array" count="462">0.002972543 -0.03492563 -2.54001e-4 0 -0.035052 -2.54001e-4 0 -0.035052 -0.05029189 -0.002972543 -0.03492563 -0.05029189 -0.002972543 -0.03492563 -2.54001e-4 -0.008832335 -0.03392094 -2.54001e-4 -0.008832335 -0.03392094 -0.05029189 -0.01443791 -0.03194034 -2.54001e-4 -0.01443791 -0.03194034 -0.05029189 -0.01962816 -0.02904087 -2.54001e-4 -0.01962816 -0.02904087 -0.05029189 -0.02425384 -0.02530592 -2.54001e-4 -0.02425384 -0.02530592 -0.05029189 -0.02818167 -0.02084296 -2.54001e-4 -0.02818167 -0.02084296 -0.05029189 -0.03129875 -0.01578044 -2.54001e-4 -0.03129875 -0.01578044 -0.05029189 -0.03351551 -0.01026391 -2.54001e-4 -0.03351551 -0.01026391 -0.05029189 -0.03476804 -0.004452228 -2.54001e-4 -0.03476804 -0.004452228 -0.05029189 -0.03502041 0.001487553 -2.54001e-4 -0.03502041 0.001487553 -0.05029189 -0.03426522 0.007384717 -2.54001e-4 -0.03426522 0.007384717 -0.05029189 -0.03252428 0.01306933 -2.54001e-4 -0.03252428 0.01306933 -0.05029189 -0.0298478 0.01837795 -2.54001e-4 -0.0298478 0.01837795 -0.05029189 -0.02631253 0.02315795 -2.54001e-4 -0.02631253 0.02315795 -0.05029189 -0.02202028 0.02727162 -2.54001e-4 -0.02202028 0.02727162 -0.05029189 -0.01709467 0.03060084 -2.54001e-4 -0.01709467 0.03060084 -0.05029189 -0.01167714 0.0330497 -2.54001e-4 -0.01167714 0.0330497 -0.05029189 -0.005923748 0.0345478 -2.54001e-4 -0.005923748 0.0345478 -0.05029189 0 0.035052 -2.54001e-4 0 0.035052 -0.05029189 0.005923748 0.0345478 -2.54001e-4 0.005923748 0.0345478 -0.05029189 0.01167714 0.0330497 -2.54001e-4 0.01167714 0.0330497 -0.05029189 0.01709467 0.03060084 -2.54001e-4 0.01709467 0.03060084 -0.05029189 0.02202028 0.02727162 -2.54001e-4 0.02202028 0.02727162 -0.05029189 0.02631253 0.02315795 -2.54001e-4 0.02631253 0.02315795 -0.05029189 0.0298478 0.01837795 -2.54001e-4 0.0298478 0.01837795 -0.05029189 0.03252428 0.01306933 -2.54001e-4 0.03252428 0.01306933 -0.05029189 0.03426522 0.007384717 -2.54001e-4 0.03426522 0.007384717 -0.05029189 0.03502041 0.001487553 -2.54001e-4 0.03502041 0.001487553 -0.05029189 0.03476804 -0.004452228 -2.54001e-4 0.03476804 -0.004452228 -0.05029189 0.03351551 -0.01026391 -2.54001e-4 0.03351551 -0.01026391 -0.05029189 0.03129875 -0.01578044 -2.54001e-4 0.03129875 -0.01578044 -0.05029189 0.02818167 -0.02084296 -2.54001e-4 0.02818167 -0.02084296 -0.05029189 0.02425384 -0.02530592 -2.54001e-4 0.02425384 -0.02530592 -0.05029189 0.01962816 -0.02904087 -2.54001e-4 0.01962816 -0.02904087 -0.05029189 0.01443791 -0.03194034 -2.54001e-4 0.01443791 -0.03194034 -0.05029189 0.008832335 -0.03392094 -2.54001e-4 0.008832335 -0.03392094 -0.05029189 0.002972543 -0.03492563 -0.05029189 0.03171795 -0.001424372 -2.54001e-4 0.03146255 0.004261851 -2.54001e-4 0.03019601 0.009811282 -2.54001e-4 0.02795881 0.01504522 -2.54001e-4 0.02482306 0.01979577 -2.54001e-4 0.02088952 0.02390998 -2.54001e-4 0.01628452 0.02725571 -2.54001e-4 0.01115614 0.02972543 -2.54001e-4 0.005669116 0.03123968 -2.54001e-4 0 0.03174996 -2.54001e-4 -0.005669116 0.03123968 -2.54001e-4 -0.01115614 0.02972543 -2.54001e-4 -0.01628452 0.02725571 -2.54001e-4 -0.02088952 0.02390998 -2.54001e-4 -0.02482306 0.01979577 -2.54001e-4 -0.02795881 0.01504522 -2.54001e-4 -0.03019601 0.009811282 -2.54001e-4 -0.03146255 0.004261851 -2.54001e-4 -0.03171795 -0.001424372 -2.54001e-4 -0.03095394 -0.007064998 -2.54001e-4 -0.02919501 -0.01247853 -2.54001e-4 -0.02649766 -0.01749098 -2.54001e-4 -0.02294874 -0.02194124 -2.54001e-4 -0.01866215 -0.02568626 -2.54001e-4 -0.0137757 -0.02860569 -2.54001e-4 -0.008446633 -0.03060579 -2.54001e-4 -0.002845942 -0.03162217 -2.54001e-4 0 -0.03174996 -2.54001e-4 0 -0.035052 -2.54001e-4 0.002845942 -0.03162217 -2.54001e-4 0.008446633 -0.03060579 -2.54001e-4 0.0137757 -0.02860569 -2.54001e-4 0.01866215 -0.02568626 -2.54001e-4 0.02294874 -0.02194124 -2.54001e-4 0.02649766 -0.01749098 -2.54001e-4 0.02919501 -0.01247853 -2.54001e-4 0.03095394 -0.007064998 -2.54001e-4 0 -0.035052 -0.05029189 0 0 -0.05029189 0.002845942 -0.03162217 0 0 -0.03174996 0 0 -0.03174996 -2.54001e-4 -0.002845942 -0.03162217 0 -0.008446633 -0.03060579 0 -0.0137757 -0.02860569 0 -0.01866215 -0.02568626 0 -0.02294874 -0.02194124 0 -0.02649766 -0.01749098 0 -0.02919501 -0.01247853 0 -0.03095394 -0.007064998 0 -0.03171795 -0.001424372 0 -0.03146255 0.004261851 0 -0.03019601 0.009811282 0 -0.02795881 0.01504522 0 -0.02482306 0.01979577 0 -0.02088952 0.02390998 0 -0.01628452 0.02725571 0 -0.01115614 0.02972543 0 -0.005669116 0.03123968 0 0 0.03174996 0 0.005669116 0.03123968 0 0.01115614 0.02972543 0 0.01628452 0.02725571 0 0.02088952 0.02390998 0 0.02482306 0.01979577 0 0.02795881 0.01504522 0 0.03019601 0.009811282 0 0.03146255 0.004261851 0 0.03171795 -0.001424372 0 0.03095394 -0.007064998 0 0.02919501 -0.01247853 0 0.02649766 -0.01749098 0 0.02294874 -0.02194124 0 0.01866215 -0.02568626 0 0.0137757 -0.02860569 0 0.008446633 -0.03060579 0 0 0 0 0 -0.03174996 0</float_array>
          <technique_common>
            <accessor source="#base_link_002-mesh-positions-array" count="154" stride="3">
              <param name="X" type="float"/>
              <param name="Y" type="float"/>
              <param name="Z" type="float"/>
            </accessor>
          </technique_common>
        </source>
        <source id="base_link_002-mesh-normals">
          <float_array id="base_link_002-mesh-normals-array" count="549">0.04245418 -0.9990984 0 -0.04245418 -0.9990984 0 -0.1690002 -0.9856161 0 -0.3331432 -0.9428763 0 -0.3331433 -0.9428762 0 -0.4876939 -0.8730148 0 -0.4876937 -0.8730149 0 -0.6282163 -0.7780387 0 -0.6282159 -0.778039 0 -0.7506781 -0.6606681 0 -0.7506781 -0.6606682 0 -0.8515274 -0.5243104 0 -0.8515277 -0.5243098 0 -0.9278908 -0.3728523 0 -0.9278903 -0.3728536 0 -0.977555 -0.2106807 0 -0.9775552 -0.2106799 0 -0.9990986 -0.04245001 0 -0.9990987 -0.04244846 0 -0.9918997 0.1270238 0 -0.9918997 0.1270239 0 -0.9561673 0.2928209 0 -0.8929289 0.4501979 0 -0.8929286 0.4501985 0 -0.8039934 0.5946382 0 -0.6919382 0.7219569 0 -0.6919382 0.7219568 0 -0.5599739 0.8285102 0 -0.5599743 0.8285101 0 -0.4119023 0.9112281 0 -0.4119024 0.911228 0 -0.2519837 0.9677315 0 -0.2519838 0.9677315 0 -0.08480745 0.9963974 0 -0.08480745 0.9963974 0 0.08480745 0.9963974 0 0.08480745 0.9963974 0 0.2519838 0.9677315 0 0.2519837 0.9677315 0 0.4119024 0.9112281 0 0.4119023 0.911228 0 0.5599743 0.8285101 0 0.5599739 0.8285102 0 0.6919382 0.7219569 0 0.6919382 0.7219568 0 0.8039934 0.5946382 0 0.8929286 0.4501985 0 0.8929289 0.4501979 0 0.9561673 0.2928209 0 0.9918997 0.1270238 0 0.9918997 0.1270239 0 0.9990987 -0.04244846 0 0.9990986 -0.04245001 0 0.9775552 -0.21068 0 0.977555 -0.2106807 0 0.9278903 -0.3728536 0 0.9278908 -0.3728523 0 0.8515277 -0.5243098 0 0.8515273 -0.5243104 0 0.7506781 -0.6606681 0 0.7506781 -0.6606682 0 0.6282159 -0.778039 0 0.6282163 -0.7780387 0 0.4876938 -0.8730149 0 0.4876939 -0.8730148 0 0.3331434 -0.9428762 0 0.3331431 -0.9428763 0 0.1690002 -0.9856161 0 0 0 1 0 0 1 0 0 1 0 0 1 0 0 1 0 0 1 0 0 1 0 0 1 0 0 1 0 0 1 0 0 1 0 0 1 0 0 1 0 0 1 0 0 1 0 0 1 0 0 1 0 0 1 0 0 1 0 0 1 0 0 1 0 0 1 0 0 1 0 0 1 0 0 1 0 0 1 0 0 1 0 0 1 0 0 1 0 0 1 0 0 1 0 0 1 0 0 1 0 0 1 0 0 -1 -1.12131e-6 0 -1 2.8033e-7 0 -1 3.15368e-7 0 -1 4.20492e-7 0 -1 4.20492e-7 0 -1 1.40165e-7 0 -1 -2.8033e-7 0 -1 2.80329e-7 0 -1 -2.80326e-7 0 -1 -1.40164e-7 0 -1 1.12131e-6 0 -1 -4.20491e-7 0 -1 -1.40164e-7 0 -1 4.20491e-7 0 -1 -6.30738e-7 0 -1 1.40164e-7 0 -1 1.40165e-7 0 -1 2.80326e-7 0 -1 -2.80329e-7 0 -1 2.8033e-7 0 -1 -2.80329e-7 0 -1 -4.20492e-7 0 -1 -2.8033e-7 0 -1 9.81142e-7 0 -1 0.04485589 -0.9989935 0 -0.04485589 -0.9989935 0 -0.1785598 -0.9839291 0 -0.3513724 -0.9362358 0 -0.5129003 -0.8584482 0 -0.5129004 -0.8584482 0 -0.6579326 -0.753077 0 -0.6579329 -0.7530766 0 -0.7818352 -0.6234852 0 -0.8805927 -0.473874 0 -0.8805932 -0.473873 0 -0.9510582 -0.3090118 0 -0.9510584 -0.3090113 0 -0.9909498 -0.1342331 0 -0.9909496 -0.1342343 0 -0.9989929 0.0448715 0 -0.9749291 0.222516 0 -0.9749293 0.2225148 0 -0.9195258 0.39303 0 -0.9195259 0.3930295 0 -0.8345755 0.5508935 0 -0.8345758 0.5508931 0 -0.7227939 0.6910637 0 -0.5877851 0.8090172 0 -0.5877854 0.809017 0 -0.4338871 0.9009674 0 -0.2660375 0.9639628 0 -0.2660375 0.9639627 0 -0.08963656 0.9959746 0 0.08963656 0.9959746 0 0.2660375 0.9639627 0 0.2660375 0.9639628 0 0.4338871 0.9009674 0 0.5877854 0.809017 0 0.5877851 0.8090172 0 0.7227939 0.6910637 0 0.8345758 0.5508931 0 0.8345755 0.5508935 0 0.9195259 0.3930295 0 0.9195258 0.39303 0 0.9749293 0.2225148 0 0.9749291 0.222516 0 0.9989929 0.0448715 0 0.9909496 -0.1342343 0 0.9909498 -0.1342331 0 0.9510584 -0.3090113 0 0.9510582 -0.3090118 0 0.8805932 -0.473873 0 0.8805927 -0.473874 0 0.7818352 -0.6234852 0 0.6579329 -0.7530766 0 0.6579326 -0.753077 0 0.5129004 -0.8584482 0 0.5129003 -0.8584482 0 0.3513724 -0.9362358 0 0.1785598 -0.9839291 0</float_array>
          <technique_common>
            <accessor source="#base_link_002-mesh-normals-array" count="183" stride="3">
              <param name="X" type="float"/>
              <param name="Y" type="float"/>
              <param name="Z" type="float"/>
            </accessor>
          </technique_common>
        </source>
        <source id="base_link_002-mesh-map-0">
          <float_array id="base_link_002-mesh-map-0-array" count="1776">0 0 0 0 0 0 0 0 0 0 0 0 0 0 0 0 0 0 0 0 0 0 0 0 0 0 0 0 0 0 0 0 0 0 0 0 0 0 0 0 0 0 0 0 0 0 0 0 0 0 0 0 0 0 0 0 0 0 0 0 0 0 0 0 0 0 0 0 0 0 0 0 0 0 0 0 0 0 0 0 0 0 0 0 0 0 0 0 0 0 0 0 0 0 0 0 0 0 0 0 0 0 0 0 0 0 0 0 0 0 0 0 0 0 0 0 0 0 0 0 0 0 0 0 0 0 0 0 0 0 0 0 0 0 0 0 0 0 0 0 0 0 0 0 0 0 0 0 0 0 0 0 0 0 0 0 0 0 0 0 0 0 0 0 0 0 0 0 0 0 0 0 0 0 0 0 0 0 0 0 0 0 0 0 0 0 0 0 0 0 0 0 0 0 0 0 0 0 0 0 0 0 0 0 0 0 0 0 0 0 0 0 0 0 0 0 0 0 0 0 0 0 0 0 0 0 0 0 0 0 0 0 0 0 0 0 0 0 0 0 0 0 0 0 0 0 0 0 0 0 0 0 0 0 0 0 0 0 0 0 0 0 0 0 0 0 0 0 0 0 0 0 0 0 0 0 0 0 0 0 0 0 0 0 0 0 0 0 0 0 0 0 0 0 0 0 0 0 0 0 0 0 0 0 0 0 0 0 0 0 0 0 0 0 0 0 0 0 0 0 0 0 0 0 0 0 0 0 0 0 0 0 0 0 0 0 0 0 0 0 0 0 0 0 0 0 0 0 0 0 0 0 0 0 0 0 0 0 0 0 0 0 0 0 0 0 0 0 0 0 0 0 0 0 0 0 0 0 0 0 0 0 0 0 0 0 0 0 0 0 0 0 0 0 0 0 0 0 0 0 0 0 0 0 0 0 0 0 0 0 0 0 0 0 0 0 0 0 0 0 0 0 0 0 0 0 0 0 0 0 0 0 0 0 0 0 0 0 0 0 0 0 0 0 0 0 0 0 0 0 0 0 0 0 0 0 0 0 0 0 0 0 0 0 0 0 0 0 0 0 0 0 0 0 0 0 0 0 0 0 0 0 0 0 0 0 0 0 0 0 0 0 0 0 0 0 0 0 0 0 0 0 0 0 0 0 0 0 0 0 0 0 0 0 0 0 0 0 0 0 0 0 0 0 0 0 0 0 0 0 0 0 0 0 0 0 0 0 0 0 0 0 0 0 0 0 0 0 0 0 0 0 0 0 0 0 0 0 0 0 0 0 0 0 0 0 0 0 0 0 0 0 0 0 0 0 0 0 0 0 0 0 0 0 0 0 0 0 0 0 0 0 0 0 0 0 0 0 0 0 0 0 0 0 0 0 0 0 0 0 0 0 0 0 0 0 0 0 0 0 0 0 0 0 0 0 0 0 0 0 0 0 0 0 0 0 0 0 0 0 0 0 0 0 0 0 0 0 0 0 0 0 0 0 0 0 0 0 0 0 0 0 0 0 0 0 0 0 0 0 0 0 0 0 0 0 0 0 0 0 0 0 0 0 0 0 0 0 0 0 0 0 0 0 0 0 0 0 0 0 0 0 0 0 0 0 0 0 0 0 0 0 0 0 0 0 0 0 0 0 0 0 0 0 0 0 0 0 0 0 0 0 0 0 0 0 0 0 0 0 0 0 0 0 0 0 0 0 0 0 0 0 0 0 0 0 0 0 0 0 0 0 0 0 0 0 0 0 0 0 0 0 0 0 0 0 0 0 0 0 0 0 0 0 0 0 0 0 0 0 0 0 0 0 0 0 0 0 0 0 0 0 0 0 0 0 0 0 0 0 0 0 0 0 0 0 0 0 0 0 0 0 0 0 0 0 0 0 0 0 0 0 0 0 0 0 0 0 0 0 0 0 0 0 0 0 0 0 0 0 0 0 0 0 0 0 0 0 0 0 0 0 0 0 0 0 0 0 0 0 0 0 0 0 0 0 0 0 0 0 0 0 0 0 0 0 0 0 0 0 0 0 0 0 0 0 0 0 0 0 0 0 0 0 0 0 0 0 0 0 0 0 0 0 0 0 0 0 0 0 0 0 0 0 0 0 0 0 0 0 0 0 0 0 0 0 0 0 0 0 0 0 0 0 0 0 0 0 0 0 0 0 0 0 0 0 0 0 0 0 0 0 0 0 0 0 0 0 0 0 0 0 0 0 0 0 0 0 0 0 0 0 0 0 0 0 0 0 0 0 0 0 0 0 0 0 0 0 0 0 0 0 0 0 0 0 0 0 0 0 0 0 0 0 0 0 0 0 0 0 0 0 0 0 0 0 0 0 0 0 0 0 0 0 0 0 0 0 0 0 0 0 0 0 0 0 0 0 0 0 0 0 0 0 0 0 0 0 0 0 0 0 0 0 0 0 0 0 0 0 0 0 0 0 0 0 0 0 0 0 0 0 0 0 0 0 0 0 0 0 0 0 0 0 0 0 0 0 0 0 0 0 0 0 0 0 0 0 0 0 0 0 0 0 0 0 0 0 0 0 0 0 0 0 0 0 0 0 0 0 0 0 0 0 0 0 0 0 0 0 0 0 0 0 0 0 0 0 0 0 0 0 0 0 0 0 0 0 0 0 0 0 0 0 0 0 0 0 0 0 0 0 0 0 0 0 0 0 0 0 0 0 0 0 0 0 0 0 0 0 0 0 0 0 0 0 0 0 0 0 0 0 0 0 0 0 0 0 0 0 0 0 0 0 0 0 0 0 0 0 0 0 0 0 0 0 0 0 0 0 0 0 0 0 0 0 0 0 0 0 0 0 0 0 0 0 0 0 0 0 0 0 0 0 0 0 0 0 0 0 0 0 0 0 0 0 0 0 0 0 0 0 0 0 0 0 0 0 0 0 0 0 0 0 0 0 0 0 0 0 0 0 0 0 0 0 0 0 0 0 0 0 0 0 0 0 0 0 0 0 0 0 0 0 0 0 0 0 0 0 0 0 0 0 0 0 0 0 0 0 0 0 0 0 0 0 0 0 0 0 0 0 0 0 0 0 0 0 0 0 0 0 0 0 0 0 0 0 0 0 0 0 0 0 0 0 0 0 0 0 0 0 0 0 0 0 0 0 0 0 0 0 0 0 0 0 0 0 0 0 0 0 0 0 0 0 0 0 0 0 0 0 0 0 0 0 0 0 0 0 0 0 0 0 0 0 0 0 0 0 0 0 0 0 0 0 0 0 0 0 0 0 0 0 0 0 0 0 0 0 0 0 0 0 0 0 0 0 0 0 0 0 0 0 0 0 0 0 0 0 0 0 0 0 0 0 0 0 0 0 0 0 0 0 0 0 0 0 0 0 0 0 0 0 0 0 0 0 0 0 0 0 0 0 0 0 0 0 0 0 0 0 0 0 0 0 0 0 0 0 0 0 0 0 0 0 0 0 0 0 0 0 0 0 0 0 0 0 0 0 0 0 0 0 0 0 0 0 0 0 0 0 0 0 0 0 0 0 0 0 0 0 0 0 0 0 0 0 0 0 0.01801854 0.6331522 0.002012789 0.5448647 0.5 0.4999998 0.5 0.4999998 0.002012789 0.5448647 0 0.4999998 0.5 0.4999998 0 0.4999998 0.002012789 0.4551345 0.1544687 0.8617614 0.09549164 0.7941886 0.5 0.4999998 0.5 0.4999998 0.09549164 0.7941886 0.04951542 0.7171602 0.5 0.4999998 0.04951542 0.7171602 0.01801854 0.6331522 0.3887394 0.9879549 0.3034877 0.9602273 0.5 0.4999998 0.5 0.4999998 0.3034877 0.9602273 0.2245514 0.917707 0.5 0.4999998 0.2245514 0.917707 0.1544687 0.8617614 0.6545086 0.9760071 0.5671163 0.9959738 0.5 0.4999998 0.5 0.4999998 0.5671163 0.9959738 0.4775674 1 0.5 0.4999998 0.4775674 1 0.3887394 0.9879549 0.8765357 0.8293009 0.8117451 0.8913093 0.5 0.4999998 0.5 0.4999998 0.8117451 0.8913093 0.7369344 0.9407414 0.5 0.4999998 0.7369344 0.9407414 0.6545086 0.9760071 0.9919648 0.5893687 0.9681175 0.6758639 0.5 0.4999998 0.5 0.4999998 0.9681175 0.6758639 0.9292246 0.756708 0.5 0.4999998 0.9292246 0.756708 0.8765357 0.8293009 0.9681175 0.3241355 0.9919648 0.4106313 0.5 0.4999998 0.5 0.4999998 0.9919648 0.4106313 1 0.4999998 0.5 0.4999998 1 0.4999998 0.9919648 0.5893687 0.8117451 0.1086905 0.8765357 0.170699 0.5 0.4999998 0.5 0.4999998 0.8765357 0.170699 0.9292246 0.2432919 0.5 0.4999998 0.9292246 0.2432919 0.9681175 0.3241355 0.5671169 0.004025876 0.6545086 0.02399253 0.5 0.4999998 0.5 0.4999998 0.6545086 0.02399253 0.7369344 0.05925858 0.5 0.4999998 0.7369344 0.05925858 0.8117451 0.1086905 0.3034877 0.03977262 0.3887394 0.01204448 0.5 0.4999998 0.5 0.4999998 0.3887394 0.01204448 0.4775674 0 0.5 0.4999998 0.4775674 0 0.5671169 0.004025876 0.09549164 0.205811 0.1544687 0.1382383 0.5 0.4999998 0.5 0.4999998 0.1544687 0.1382383 0.2245514 0.08229273 0.5 0.4999998 0.2245514 0.08229273 0.3034877 0.03977262 0.002012789 0.4551345 0.01801854 0.3668475 0.5 0.4999998 0.5 0.4999998 0.01801854 0.3668475 0.04951542 0.2828393 0.5 0.4999998 0.04951542 0.2828393 0.09549164 0.205811</float_array>
          <technique_common>
            <accessor source="#base_link_002-mesh-map-0-array" count="888" stride="2">
              <param name="S" type="float"/>
              <param name="T" type="float"/>
            </accessor>
          </technique_common>
        </source>
        <vertices id="base_link_002-mesh-vertices">
          <input semantic="POSITION" source="#base_link_002-mesh-positions"/>
        </vertices>
        <triangles material="Material_005-material" count="296">
          <input semantic="VERTEX" source="#base_link_002-mesh-vertices" offset="0"/>
          <input semantic="NORMAL" source="#base_link_002-mesh-normals" offset="1"/>
          <input semantic="TEXCOORD" source="#base_link_002-mesh-map-0" offset="2" set="0"/>
          <p>0 0 0 1 0 1 2 0 2 2 1 3 1 1 4 3 1 5 1 1 6 4 1 7 3 1 8 3 2 9 4 2 10 5 2 11 3 2 12 5 2 13 6 2 14 6 3 15 5 3 16 7 3 17 6 4 18 7 4 19 8 4 20 8 5 21 7 5 22 9 5 23 8 6 24 9 6 25 10 6 26 10 7 27 9 7 28 11 7 29 10 8 30 11 8 31 12 8 32 12 9 33 11 9 34 13 9 35 12 10 36 13 10 37 14 10 38 14 11 39 13 11 40 15 11 41 14 12 42 15 12 43 16 12 44 16 13 45 15 13 46 17 13 47 16 14 48 17 14 49 18 14 50 18 15 51 17 15 52 19 15 53 18 16 54 19 16 55 20 16 56 20 17 57 19 17 58 21 17 59 20 18 60 21 18 61 22 18 62 22 19 63 21 19 64 23 19 65 22 20 66 23 20 67 24 20 68 24 21 69 23 21 70 25 21 71 24 21 72 25 21 73 26 21 74 26 22 75 25 22 76 27 22 77 26 23 78 27 23 79 28 23 80 28 24 81 27 24 82 29 24 83 28 24 84 29 24 85 30 24 86 30 25 87 29 25 88 31 25 89 30 26 90 31 26 91 32 26 92 32 27 93 31 27 94 33 27 95 32 28 96 33 28 97 34 28 98 34 29 99 33 29 100 35 29 101 34 30 102 35 30 103 36 30 104 36 31 105 35 31 106 37 31 107 36 32 108 37 32 109 38 32 110 38 33 111 37 33 112 39 33 113 38 34 114 39 34 115 40 34 116 40 35 117 39 35 118 41 35 119 40 36 120 41 36 121 42 36 122 42 37 123 41 37 124 43 37 125 42 38 126 43 38 127 44 38 128 44 39 129 43 39 130 45 39 131 44 40 132 45 40 133 46 40 134 46 41 135 45 41 136 47 41 137 46 42 138 47 42 139 48 42 140 48 43 141 47 43 142 49 43 143 48 44 144 49 44 145 50 44 146 50 45 147 49 45 148 51 45 149 50 45 150 51 45 151 52 45 152 52 46 153 51 46 154 53 46 155 52 47 156 53 47 157 54 47 158 54 48 159 53 48 160 55 48 161 54 48 162 55 48 163 56 48 164 56 49 165 55 49 166 57 49 167 56 50 168 57 50 169 58 50 170 58 51 171 57 51 172 59 51 173 58 52 174 59 52 175 60 52 176 60 53 177 59 53 178 61 53 179 60 54 180 61 54 181 62 54 182 62 55 183 61 55 184 63 55 185 62 56 186 63 56 187 64 56 188 64 57 189 63 57 190 65 57 191 64 58 192 65 58 193 66 58 194 66 59 195 65 59 196 67 59 197 66 60 198 67 60 199 68 60 200 68 61 201 67 61 202 69 61 203 68 62 204 69 62 205 70 62 206 70 63 207 69 63 208 71 63 209 70 64 210 71 64 211 72 64 212 72 65 213 71 65 214 73 65 215 72 66 216 73 66 217 74 66 218 74 67 219 73 67 220 0 67 221 74 67 222 0 67 223 75 67 224 75 0 225 0 0 226 2 0 227 76 68 228 57 68 229 77 68 230 77 69 231 57 69 232 55 69 233 77 70 234 55 70 235 78 70 236 78 71 237 55 71 238 53 71 239 78 70 240 53 70 241 79 70 242 79 72 243 53 72 244 51 72 245 79 73 246 51 73 247 80 73 248 80 70 249 51 70 250 49 70 251 80 74 252 49 74 253 81 74 254 81 70 255 49 70 256 47 70 257 81 75 258 47 75 259 82 75 260 82 70 261 47 70 262 45 70 263 82 76 264 45 76 265 83 76 266 83 77 267 45 77 268 43 77 269 83 70 270 43 70 271 84 70 272 84 70 273 43 70 274 41 70 275 84 78 276 41 78 277 85 78 278 85 79 279 41 79 280 39 79 281 85 70 282 39 70 283 86 70 284 86 80 285 39 80 286 37 80 287 86 70 288 37 70 289 87 70 290 87 81 291 37 81 292 35 81 293 87 70 294 35 70 295 88 70 296 88 70 297 35 70 298 33 70 299 88 70 300 33 70 301 89 70 302 89 70 303 33 70 304 31 70 305 89 82 306 31 82 307 90 82 308 90 83 309 31 83 310 29 83 311 90 70 312 29 70 313 91 70 314 91 84 315 29 84 316 27 84 317 91 70 318 27 70 319 92 70 320 92 85 321 27 85 322 25 85 323 92 70 324 25 70 325 93 70 326 93 70 327 25 70 328 23 70 329 93 70 330 23 70 331 94 70 332 23 86 333 21 86 334 94 86 335 94 70 336 21 70 337 19 70 338 94 87 339 19 87 340 95 87 341 95 70 342 19 70 343 17 70 344 95 70 345 17 70 346 96 70 347 96 70 348 17 70 349 15 70 350 96 88 351 15 88 352 97 88 353 97 70 354 15 70 355 13 70 356 97 89 357 13 89 358 98 89 359 98 70 360 13 70 361 11 70 362 98 90 363 11 90 364 99 90 365 99 70 366 11 70 367 9 70 368 99 91 369 9 91 370 100 91 371 100 70 372 9 70 373 7 70 374 100 70 375 7 70 376 101 70 377 101 70 378 7 70 379 5 70 380 101 92 381 5 92 382 102 92 383 102 70 384 5 70 385 4 70 386 102 93 387 4 93 388 103 93 389 103 94 390 4 94 391 104 94 392 103 70 393 104 70 394 105 70 395 105 95 396 104 95 397 0 95 398 105 70 399 0 70 400 106 70 401 106 70 402 0 70 403 73 70 404 106 96 405 73 96 406 107 96 407 107 97 408 73 97 409 71 97 410 107 70 411 71 70 412 108 70 413 108 70 414 71 70 415 69 70 416 108 98 417 69 98 418 109 98 419 109 70 420 69 70 421 67 70 422 109 70 423 67 70 424 110 70 425 110 99 426 67 99 427 65 99 428 110 70 429 65 70 430 111 70 431 111 100 432 65 100 433 63 100 434 111 70 435 63 70 436 112 70 437 112 101 438 63 101 439 61 101 440 112 70 441 61 70 442 76 70 443 76 70 444 61 70 445 59 70 446 76 70 447 59 70 448 57 70 449 113 102 450 3 102 451 114 102 452 113 102 453 114 102 454 75 102 455 70 103 456 72 103 457 114 103 458 114 104 459 72 104 460 74 104 461 114 105 462 74 105 463 75 105 464 64 102 465 66 102 466 114 102 467 114 106 468 66 106 469 68 106 470 114 107 471 68 107 472 70 107 473 58 108 474 60 108 475 114 108 476 114 109 477 60 109 478 62 109 479 114 102 480 62 102 481 64 102 482 52 102 483 54 102 484 114 102 485 114 110 486 54 110 487 56 110 488 114 111 489 56 111 490 58 111 491 46 102 492 48 102 493 114 102 494 114 112 495 48 112 496 50 112 497 114 102 498 50 102 499 52 102 500 40 113 501 42 113 502 114 113 503 114 114 504 42 114 505 44 114 506 114 115 507 44 115 508 46 115 509 34 102 510 36 102 511 114 102 512 114 116 513 36 116 514 38 116 515 114 117 516 38 117 517 40 117 518 28 102 519 30 102 520 114 102 521 114 118 522 30 118 523 32 118 524 114 119 525 32 119 526 34 119 527 22 120 528 24 120 529 114 120 530 114 121 531 24 121 532 26 121 533 114 102 534 26 102 535 28 102 536 16 102 537 18 102 538 114 102 539 114 122 540 18 122 541 20 122 542 114 123 543 20 123 544 22 123 545 10 102 546 12 102 547 114 102 548 114 124 549 12 124 550 14 124 551 114 102 552 14 102 553 16 102 554 3 102 555 6 102 556 114 102 557 114 125 558 6 125 559 8 125 560 114 126 561 8 126 562 10 126 563 115 127 564 116 127 565 117 127 566 117 128 567 116 128 568 102 128 569 116 128 570 118 128 571 102 128 572 102 129 573 118 129 574 119 129 575 102 129 576 119 129 577 101 129 578 101 130 579 119 130 580 120 130 581 101 130 582 120 130 583 100 130 584 100 131 585 120 131 586 121 131 587 100 132 588 121 132 589 99 132 590 99 133 591 121 133 592 122 133 593 99 134 594 122 134 595 98 134 596 98 135 597 122 135 598 123 135 599 98 135 600 123 135 601 97 135 602 97 136 603 123 136 604 124 136 605 97 137 606 124 137 607 96 137 608 96 138 609 124 138 610 125 138 611 96 139 612 125 139 613 95 139 614 95 140 615 125 140 616 126 140 617 95 141 618 126 141 619 94 141 620 94 142 621 126 142 622 127 142 623 94 142 624 127 142 625 93 142 626 93 143 627 127 143 628 128 143 629 93 144 630 128 144 631 92 144 632 92 145 633 128 145 634 129 145 635 92 146 636 129 146 637 91 146 638 91 147 639 129 147 640 130 147 641 91 148 642 130 148 643 90 148 644 90 149 645 130 149 646 131 149 647 90 149 648 131 149 649 89 149 650 89 150 651 131 150 652 132 150 653 89 151 654 132 151 655 88 151 656 88 152 657 132 152 658 133 152 659 88 152 660 133 152 661 87 152 662 87 153 663 133 153 664 134 153 665 87 154 666 134 154 667 86 154 668 86 155 669 134 155 670 135 155 671 86 155 672 135 155 673 85 155 674 85 156 675 135 156 676 136 156 677 85 156 678 136 156 679 84 156 680 84 157 681 136 157 682 137 157 683 84 158 684 137 158 685 83 158 686 83 159 687 137 159 688 138 159 689 83 159 690 138 159 691 82 159 692 82 160 693 138 160 694 139 160 695 82 161 696 139 161 697 81 161 698 81 162 699 139 162 700 140 162 701 81 162 702 140 162 703 80 162 704 80 163 705 140 163 706 141 163 707 80 164 708 141 164 709 79 164 710 79 165 711 141 165 712 142 165 713 79 166 714 142 166 715 78 166 716 78 167 717 142 167 718 143 167 719 78 168 720 143 168 721 77 168 722 77 169 723 143 169 724 144 169 725 77 169 726 144 169 727 76 169 728 76 170 729 144 170 730 145 170 731 76 171 732 145 171 733 112 171 734 112 172 735 145 172 736 146 172 737 112 173 738 146 173 739 111 173 740 111 174 741 146 174 742 147 174 743 111 175 744 147 175 745 110 175 746 110 176 747 147 176 748 148 176 749 110 176 750 148 176 751 109 176 752 109 177 753 148 177 754 149 177 755 109 178 756 149 178 757 108 178 758 108 179 759 149 179 760 150 179 761 108 180 762 150 180 763 107 180 764 107 181 765 150 181 766 151 181 767 107 181 768 151 181 769 106 181 770 106 182 771 151 182 772 115 182 773 106 182 774 115 182 775 105 182 776 105 127 777 115 127 778 117 127 779 119 70 780 118 70 781 152 70 782 152 70 783 118 70 784 153 70 785 152 70 786 153 70 787 115 70 788 122 70 789 121 70 790 152 70 791 152 70 792 121 70 793 120 70 794 152 70 795 120 70 796 119 70 797 125 70 798 124 70 799 152 70 800 152 70 801 124 70 802 123 70 803 152 70 804 123 70 805 122 70 806 128 70 807 127 70 808 152 70 809 152 70 810 127 70 811 126 70 812 152 70 813 126 70 814 125 70 815 131 70 816 130 70 817 152 70 818 152 70 819 130 70 820 129 70 821 152 70 822 129 70 823 128 70 824 134 70 825 133 70 826 152 70 827 152 70 828 133 70 829 132 70 830 152 70 831 132 70 832 131 70 833 137 70 834 136 70 835 152 70 836 152 70 837 136 70 838 135 70 839 152 70 840 135 70 841 134 70 842 140 70 843 139 70 844 152 70 845 152 70 846 139 70 847 138 70 848 152 70 849 138 70 850 137 70 851 143 70 852 142 70 853 152 70 854 152 70 855 142 70 856 141 70 857 152 70 858 141 70 859 140 70 860 146 70 861 145 70 862 152 70 863 152 70 864 145 70 865 144 70 866 152 70 867 144 70 868 143 70 869 149 70 870 148 70 871 152 70 872 152 70 873 148 70 874 147 70 875 152 70 876 147 70 877 146 70 878 115 70 879 151 70 880 152 70 881 152 70 882 151 70 883 150 70 884 152 70 885 150 70 886 149 70 887</p>
        </triangles>
      </mesh>
    </geometry>
  </library_geometries>
  <library_visual_scenes>
    <visual_scene id="Scene" name="Scene">
      <node id="Light_001" name="Light.001" type="NODE">
        <matrix sid="transform">-0.2908648 -0.7711008 0.5663932 4.076245 0.9551711 -0.1998834 0.2183913 1.005454 -0.05518911 0.6045247 0.7946723 5.903862 0 0 0 1</matrix>
        <instance_light url="#Light_001-light"/>
      </node>
      <node id="Camera_001" name="Camera.001" type="NODE">
        <matrix sid="transform">0.6859207 -0.3240135 0.6515582 7.358891 0.7276763 0.3054209 -0.6141704 -6.925791 -4.01133e-9 0.8953956 0.4452714 4.958309 0 0 0 1</matrix>
        <instance_camera url="#Camera_001-camera"/>
      </node>
      <node id="base_link" name="base_link" type="NODE">
        <matrix sid="transform">1 0 0 0 0 1 0 0 0 0 1 0 0 0 0 1</matrix>
        <instance_geometry url="#base_link_002-mesh" name="base_link">
          <bind_material>
            <technique_common>
              <instance_material symbol="Material_005-material" target="#Material_005-material">
                <bind_vertex_input semantic="base_link-mesh-map-0" input_semantic="TEXCOORD" input_set="0"/>
              </instance_material>
              <instance_material symbol="Material_006-material" target="#Material_006-material">
                <bind_vertex_input semantic="base_link-mesh-map-0" input_semantic="TEXCOORD" input_set="0"/>
              </instance_material>
            </technique_common>
          </bind_material>
        </instance_geometry>
      </node>
      <node id="Camera" name="Camera" type="NODE">
        <matrix sid="transform">0.6859207 -0.3240135 0.6515582 7.358891 0.7276763 0.3054208 -0.6141704 -6.925791 0 0.8953956 0.4452714 4.958309 0 0 0 1</matrix>
        <instance_camera url="#Camera-camera"/>
      </node>
      <node id="Light" name="Light" type="NODE">
        <matrix sid="transform">-0.2908646 -0.7711008 0.5663932 4.076245 0.9551712 -0.1998834 0.2183912 1.005454 -0.05518906 0.6045247 0.7946723 5.903862 0 0 0 1</matrix>
        <instance_light url="#Light-light"/>
      </node>
    </visual_scene>
  </library_visual_scenes>
  <scene>
    <instance_visual_scene url="#Scene"/>
  </scene>
</COLLADA>